<?xml version="1.0" standalone="no"?>
<!DOCTYPE svg PUBLIC "-//W3C//DTD SVG 20010904//EN"
 "http://www.w3.org/TR/2001/REC-SVG-20010904/DTD/svg10.dtd">
<svg version="1.0" xmlns="http://www.w3.org/2000/svg"
 width="1200.000000pt" height="1200.000000pt" viewBox="0 0 1200.000000 1200.000000"
 preserveAspectRatio="xMidYMid meet">
<metadata>
Created by potrace 1.16, written by Peter Selinger 2001-2019
</metadata>
<g transform="translate(0.000000,1200.000000) scale(0.100000,-0.100000)"
fill="#000000" stroke="none">
<path d="M7040 11473 c-178 -10 -390 -50 -550 -103 -194 -65 -340 -140 -505
-260 l-80 -58 -110 -11 c-891 -93 -1607 -576 -2085 -1406 -247 -428 -405 -928
-477 -1505 -23 -183 -26 -805 -5 -995 34 -308 80 -580 168 -985 134 -618 154
-714 183 -875 38 -211 66 -418 82 -600 14 -161 18 -546 6 -716 l-8 -116 108
-50 c119 -56 252 -107 386 -148 48 -14 87 -29 87 -33 0 -4 -108 -254 -239
-557 l-238 -550 273 -3 274 -2 0 -159 c0 -88 3 -166 6 -175 5 -14 -8 -16 -102
-16 -93 0 -116 -4 -160 -24 -96 -45 -144 -135 -144 -272 l0 -73 -362 -3 c-395
-4 -396 -4 -467 -64 -37 -31 -81 -112 -81 -148 0 -14 -57 -217 -126 -453 -106
-363 -125 -436 -121 -480 5 -70 48 -138 111 -178 l49 -30 2836 -3 c2543 -2
2840 -1 2877 13 45 17 107 73 130 118 36 68 32 99 -79 557 -58 239 -108 452
-112 472 -9 60 -63 129 -125 163 l-55 30 -256 3 -257 4 -4 96 c-5 111 -24 158
-83 210 -58 51 -95 62 -215 62 l-107 0 9 53 c6 28 8 107 6 175 l-3 122 146 0
c167 0 213 11 277 66 92 78 140 244 197 679 19 146 22 614 5 815 -65 776 -308
1419 -768 2040 -197 266 -396 492 -757 860 -142 146 -286 292 -318 326 l-58
61 68 -14 c48 -11 109 -13 208 -10 164 5 222 20 495 127 256 100 322 115 505
114 136 0 157 -2 222 -26 140 -50 236 -115 453 -307 195 -173 298 -233 435
-252 279 -38 655 96 915 327 228 202 319 390 307 637 -6 131 -28 204 -89 299
-54 83 -397 424 -663 658 -604 533 -745 664 -892 831 -116 133 -196 245 -244
346 -75 153 -134 186 -568 309 -189 54 -371 119 -371 133 0 3 7 51 15 106 19
138 46 256 104 463 55 195 91 342 91 372 0 21 -3 22 -150 13z"/>
</g>
</svg>
